<mxfile host="app.diagrams.net" modified="2024-04-01T07:49:38.770Z" agent="Mozilla/5.0 (Windows NT 10.0; Win64; x64) AppleWebKit/537.36 (KHTML, like Gecko) Chrome/120.0.0.0 YaBrowser/24.1.0.0 Safari/537.36" etag="Rn_7VQ_ZQd0PModri43I" version="24.2.1" type="device">
  <diagram name="Страница — 1" id="Tc0V50Dtuka-YFAw-D2M">
    <mxGraphModel dx="1580" dy="348" grid="1" gridSize="10" guides="1" tooltips="1" connect="1" arrows="1" fold="1" page="1" pageScale="1" pageWidth="827" pageHeight="1169" math="0" shadow="0">
      <root>
        <mxCell id="0" />
        <mxCell id="1" parent="0" />
        <mxCell id="eRywArUWAU3D1B0zGhJ7-4" style="edgeStyle=orthogonalEdgeStyle;rounded=0;orthogonalLoop=1;jettySize=auto;html=1;" edge="1" parent="1" source="eRywArUWAU3D1B0zGhJ7-1">
          <mxGeometry relative="1" as="geometry">
            <mxPoint x="500" y="160" as="targetPoint" />
          </mxGeometry>
        </mxCell>
        <mxCell id="eRywArUWAU3D1B0zGhJ7-5" style="edgeStyle=orthogonalEdgeStyle;rounded=0;orthogonalLoop=1;jettySize=auto;html=1;exitX=0.49;exitY=0.76;exitDx=0;exitDy=0;exitPerimeter=0;entryX=0.5;entryY=0;entryDx=0;entryDy=0;" edge="1" parent="1" source="eRywArUWAU3D1B0zGhJ7-1" target="eRywArUWAU3D1B0zGhJ7-6">
          <mxGeometry relative="1" as="geometry">
            <mxPoint x="350" y="160" as="targetPoint" />
          </mxGeometry>
        </mxCell>
        <mxCell id="eRywArUWAU3D1B0zGhJ7-9" style="edgeStyle=orthogonalEdgeStyle;rounded=0;orthogonalLoop=1;jettySize=auto;html=1;" edge="1" parent="1" source="eRywArUWAU3D1B0zGhJ7-1" target="eRywArUWAU3D1B0zGhJ7-8">
          <mxGeometry relative="1" as="geometry" />
        </mxCell>
        <mxCell id="eRywArUWAU3D1B0zGhJ7-1" value="Гость" style="shape=umlActor;verticalLabelPosition=bottom;verticalAlign=top;html=1;" vertex="1" parent="1">
          <mxGeometry x="398.5" y="130" width="30" height="60" as="geometry" />
        </mxCell>
        <mxCell id="eRywArUWAU3D1B0zGhJ7-6" value="Авторизация" style="ellipse;whiteSpace=wrap;html=1;" vertex="1" parent="1">
          <mxGeometry x="344" y="250" width="140" height="70" as="geometry" />
        </mxCell>
        <mxCell id="eRywArUWAU3D1B0zGhJ7-7" value="Просмотреть всю музыку" style="ellipse;whiteSpace=wrap;html=1;" vertex="1" parent="1">
          <mxGeometry x="500" y="125" width="140" height="70" as="geometry" />
        </mxCell>
        <mxCell id="eRywArUWAU3D1B0zGhJ7-8" value="Включить музыку" style="ellipse;whiteSpace=wrap;html=1;" vertex="1" parent="1">
          <mxGeometry x="190" y="125" width="140" height="70" as="geometry" />
        </mxCell>
        <mxCell id="eRywArUWAU3D1B0zGhJ7-30" style="edgeStyle=orthogonalEdgeStyle;rounded=0;orthogonalLoop=1;jettySize=auto;html=1;entryX=0.5;entryY=0;entryDx=0;entryDy=0;" edge="1" parent="1" source="eRywArUWAU3D1B0zGhJ7-10" target="eRywArUWAU3D1B0zGhJ7-29">
          <mxGeometry relative="1" as="geometry" />
        </mxCell>
        <mxCell id="eRywArUWAU3D1B0zGhJ7-33" style="edgeStyle=orthogonalEdgeStyle;rounded=0;orthogonalLoop=1;jettySize=auto;html=1;" edge="1" parent="1" source="eRywArUWAU3D1B0zGhJ7-10" target="eRywArUWAU3D1B0zGhJ7-32">
          <mxGeometry relative="1" as="geometry" />
        </mxCell>
        <mxCell id="eRywArUWAU3D1B0zGhJ7-10" value="Администратор" style="shape=umlActor;verticalLabelPosition=bottom;verticalAlign=top;html=1;" vertex="1" parent="1">
          <mxGeometry x="399" y="540" width="30" height="60" as="geometry" />
        </mxCell>
        <mxCell id="eRywArUWAU3D1B0zGhJ7-43" style="edgeStyle=orthogonalEdgeStyle;rounded=0;orthogonalLoop=1;jettySize=auto;html=1;" edge="1" parent="1" source="eRywArUWAU3D1B0zGhJ7-11" target="eRywArUWAU3D1B0zGhJ7-23">
          <mxGeometry relative="1" as="geometry" />
        </mxCell>
        <mxCell id="eRywArUWAU3D1B0zGhJ7-45" style="edgeStyle=orthogonalEdgeStyle;rounded=0;orthogonalLoop=1;jettySize=auto;html=1;entryX=1;entryY=0.5;entryDx=0;entryDy=0;" edge="1" parent="1" source="eRywArUWAU3D1B0zGhJ7-11" target="eRywArUWAU3D1B0zGhJ7-13">
          <mxGeometry relative="1" as="geometry" />
        </mxCell>
        <mxCell id="eRywArUWAU3D1B0zGhJ7-11" value="Пользователь" style="shape=umlActor;verticalLabelPosition=bottom;verticalAlign=top;html=1;" vertex="1" parent="1">
          <mxGeometry x="399" y="365" width="30" height="60" as="geometry" />
        </mxCell>
        <mxCell id="eRywArUWAU3D1B0zGhJ7-13" value="Работа с аккаунтом" style="ellipse;whiteSpace=wrap;html=1;" vertex="1" parent="1">
          <mxGeometry x="150" y="360" width="140" height="70" as="geometry" />
        </mxCell>
        <mxCell id="eRywArUWAU3D1B0zGhJ7-14" value="&amp;lt;&amp;lt;include&amp;gt;&amp;gt;" style="html=1;verticalAlign=bottom;endArrow=open;dashed=1;endSize=8;curved=0;rounded=0;exitX=0.5;exitY=1;exitDx=0;exitDy=0;entryX=0.5;entryY=0;entryDx=0;entryDy=0;" edge="1" parent="1" source="eRywArUWAU3D1B0zGhJ7-13" target="eRywArUWAU3D1B0zGhJ7-15">
          <mxGeometry relative="1" as="geometry">
            <mxPoint x="70" y="330" as="sourcePoint" />
            <mxPoint x="20" y="355" as="targetPoint" />
          </mxGeometry>
        </mxCell>
        <mxCell id="eRywArUWAU3D1B0zGhJ7-15" value="Изменить пароль" style="ellipse;whiteSpace=wrap;html=1;" vertex="1" parent="1">
          <mxGeometry x="70" y="480" width="140" height="70" as="geometry" />
        </mxCell>
        <mxCell id="eRywArUWAU3D1B0zGhJ7-16" value="Выйти из аккаунта" style="ellipse;whiteSpace=wrap;html=1;" vertex="1" parent="1">
          <mxGeometry x="-30" y="410" width="140" height="70" as="geometry" />
        </mxCell>
        <mxCell id="eRywArUWAU3D1B0zGhJ7-17" value="Удалить аккаунт" style="ellipse;whiteSpace=wrap;html=1;" vertex="1" parent="1">
          <mxGeometry x="160" y="540" width="140" height="70" as="geometry" />
        </mxCell>
        <mxCell id="eRywArUWAU3D1B0zGhJ7-18" value="&amp;lt;&amp;lt;include&amp;gt;&amp;gt;" style="html=1;verticalAlign=bottom;endArrow=open;dashed=1;endSize=8;curved=0;rounded=0;exitX=0.5;exitY=1;exitDx=0;exitDy=0;entryX=1;entryY=0.5;entryDx=0;entryDy=0;" edge="1" parent="1" source="eRywArUWAU3D1B0zGhJ7-13" target="eRywArUWAU3D1B0zGhJ7-16">
          <mxGeometry relative="1" as="geometry">
            <mxPoint x="70" y="330" as="sourcePoint" />
            <mxPoint x="10" y="375" as="targetPoint" />
          </mxGeometry>
        </mxCell>
        <mxCell id="eRywArUWAU3D1B0zGhJ7-19" value="&amp;lt;&amp;lt;include&amp;gt;&amp;gt;" style="html=1;verticalAlign=bottom;endArrow=open;dashed=1;endSize=8;curved=0;rounded=0;exitX=0.5;exitY=1;exitDx=0;exitDy=0;entryX=0.5;entryY=0;entryDx=0;entryDy=0;" edge="1" parent="1" source="eRywArUWAU3D1B0zGhJ7-13" target="eRywArUWAU3D1B0zGhJ7-17">
          <mxGeometry relative="1" as="geometry">
            <mxPoint x="70" y="330" as="sourcePoint" />
            <mxPoint x="10" y="390" as="targetPoint" />
          </mxGeometry>
        </mxCell>
        <mxCell id="eRywArUWAU3D1B0zGhJ7-23" value="Работа с моей музыкой" style="ellipse;whiteSpace=wrap;html=1;" vertex="1" parent="1">
          <mxGeometry x="510" y="360" width="140" height="70" as="geometry" />
        </mxCell>
        <mxCell id="eRywArUWAU3D1B0zGhJ7-24" value="Просмотреть мою музыку" style="ellipse;whiteSpace=wrap;html=1;" vertex="1" parent="1">
          <mxGeometry x="650" y="290" width="140" height="70" as="geometry" />
        </mxCell>
        <mxCell id="eRywArUWAU3D1B0zGhJ7-25" value="Добавить песню в мою музыку" style="ellipse;whiteSpace=wrap;html=1;" vertex="1" parent="1">
          <mxGeometry x="670" y="425" width="140" height="70" as="geometry" />
        </mxCell>
        <mxCell id="eRywArUWAU3D1B0zGhJ7-27" value="&amp;lt;&amp;lt;include&amp;gt;&amp;gt;" style="html=1;verticalAlign=bottom;endArrow=open;dashed=1;endSize=8;curved=0;rounded=0;exitX=1;exitY=0.5;exitDx=0;exitDy=0;entryX=0.299;entryY=0.971;entryDx=0;entryDy=0;entryPerimeter=0;" edge="1" parent="1" source="eRywArUWAU3D1B0zGhJ7-23" target="eRywArUWAU3D1B0zGhJ7-24">
          <mxGeometry relative="1" as="geometry">
            <mxPoint x="540" y="450" as="sourcePoint" />
            <mxPoint x="489" y="500" as="targetPoint" />
          </mxGeometry>
        </mxCell>
        <mxCell id="eRywArUWAU3D1B0zGhJ7-28" value="&amp;lt;&amp;lt;include&amp;gt;&amp;gt;" style="html=1;verticalAlign=bottom;endArrow=open;dashed=1;endSize=8;curved=0;rounded=0;exitX=1;exitY=0.5;exitDx=0;exitDy=0;entryX=0;entryY=0;entryDx=0;entryDy=0;" edge="1" parent="1" source="eRywArUWAU3D1B0zGhJ7-23" target="eRywArUWAU3D1B0zGhJ7-25">
          <mxGeometry relative="1" as="geometry">
            <mxPoint x="561" y="575" as="sourcePoint" />
            <mxPoint x="529" y="595" as="targetPoint" />
          </mxGeometry>
        </mxCell>
        <mxCell id="eRywArUWAU3D1B0zGhJ7-29" value="Заблокировать пользователя" style="ellipse;whiteSpace=wrap;html=1;" vertex="1" parent="1">
          <mxGeometry x="344" y="680" width="140" height="70" as="geometry" />
        </mxCell>
        <mxCell id="eRywArUWAU3D1B0zGhJ7-32" value="Добавить песню в общую музыку" style="ellipse;whiteSpace=wrap;html=1;" vertex="1" parent="1">
          <mxGeometry x="484" y="535" width="140" height="70" as="geometry" />
        </mxCell>
        <mxCell id="eRywArUWAU3D1B0zGhJ7-46" style="edgeStyle=orthogonalEdgeStyle;rounded=0;orthogonalLoop=1;jettySize=auto;html=1;entryX=0.5;entryY=0;entryDx=0;entryDy=0;entryPerimeter=0;" edge="1" parent="1" source="eRywArUWAU3D1B0zGhJ7-11" target="eRywArUWAU3D1B0zGhJ7-10">
          <mxGeometry relative="1" as="geometry" />
        </mxCell>
      </root>
    </mxGraphModel>
  </diagram>
</mxfile>
